<svg xmlns="http://www.w3.org/2000/svg" width="512" height="512" viewBox="0 0 512 512" version="1.1"><path d="M 248.500 41.737 C 220 42.708, 191.115 49.756, 165.221 62.057 C 150.747 68.933, 143.977 72.922, 130.618 82.446 C 121.446 88.985, 102.457 105.790, 103.294 106.627 C 103.496 106.830, 106.776 105.939, 110.581 104.648 C 125.877 99.459, 151.347 94.837, 172 93.503 C 183.199 92.779, 208.573 94.349, 221.421 96.560 C 263.109 103.735, 298.422 119.727, 332.413 146.825 C 341.053 153.713, 357.465 170.126, 365.213 179.627 C 371.384 187.193, 385.673 208.427, 390.450 217.127 L 393.399 222.500 394.864 214.500 C 395.884 208.923, 396.338 199.080, 396.360 182 C 396.387 160.943, 396.079 155.778, 394.171 145.244 C 391.253 129.139, 386.204 111.916, 380.703 99.306 C 376.198 88.980, 367.920 74.008, 365.693 72.160 C 365.025 71.605, 359.668 68.685, 353.789 65.671 C 327.188 52.032, 298.081 43.769, 272 42.451 C 266.225 42.159, 260.150 41.825, 258.500 41.710 C 256.850 41.594, 252.350 41.606, 248.500 41.737 M 406 104.131 C 406 104.437, 406.917 107.345, 408.038 110.593 C 418.268 140.247, 421.346 186.780, 415.405 222 C 402.867 296.340, 354.787 360.990, 287.500 393.987 C 258.129 408.389, 232.229 415.464, 199.500 418.025 C 172.056 420.172, 135.335 415.815, 111.075 407.534 C 106.991 406.141, 103.406 405, 103.109 405 C 101.974 405, 113.830 416.431, 121 422.250 C 151.217 446.773, 188.728 463.108, 227.172 468.484 C 242.129 470.576, 269.949 470.565, 284.990 468.462 C 331.760 461.921, 373.867 440.911, 407.389 407.389 C 440.911 373.867, 461.921 331.760, 468.462 284.990 C 470.565 269.949, 470.576 242.129, 468.484 227.172 C 463.121 188.823, 447.482 152.702, 422.949 122 C 416.607 114.064, 406 102.881, 406 104.131 M 86.382 137.803 C 80.267 140.957, 74.517 144.156, 73.606 144.912 C 68.915 148.805, 56.334 176.389, 50.521 195.524 C 38.930 233.679, 38.930 278.321, 50.521 316.476 C 57.062 338.009, 69.326 363.973, 74.775 367.826 C 78.800 370.673, 96.983 379.630, 104.746 382.590 C 132.431 393.147, 158.886 397.643, 187.907 396.720 C 203.721 396.218, 221 394.273, 221 392.996 C 221 392.667, 218.910 391.383, 216.355 390.142 C 195.219 379.873, 162.976 353.002, 145.393 331 C 109.380 285.939, 91.111 231.180, 93.349 175 C 93.913 160.841, 95.647 145.979, 97.907 135.918 C 98.391 133.763, 98.498 132.016, 98.144 132.035 C 97.790 132.055, 92.497 134.650, 86.382 137.803" stroke="none" fill="#04acdc" fill-rule="evenodd"/><path d="M 232.500 21.050 C 134.046 31.150, 52.035 101.700, 27.510 197.392 C 21.913 219.230, 20.566 230.596, 20.566 256 C 20.566 281.404, 21.913 292.770, 27.510 314.608 C 48.886 398.012, 113.988 463.114, 197.392 484.490 C 219.230 490.087, 230.596 491.434, 256 491.434 C 281.404 491.434, 292.770 490.087, 314.608 484.490 C 398.012 463.114, 463.114 398.012, 484.490 314.608 C 490.087 292.770, 491.434 281.404, 491.434 256 C 491.434 230.596, 490.087 219.230, 484.490 197.392 C 463.118 114.004, 397.991 48.868, 314.643 27.521 C 307.414 25.670, 296.775 23.426, 291 22.534 C 278.455 20.598, 245.143 19.753, 232.500 21.050 M 248.500 41.737 C 220 42.708, 191.115 49.756, 165.221 62.057 C 150.747 68.933, 143.977 72.922, 130.618 82.446 C 121.446 88.985, 102.457 105.790, 103.294 106.627 C 103.496 106.830, 106.776 105.939, 110.581 104.648 C 125.877 99.459, 151.347 94.837, 172 93.503 C 183.199 92.779, 208.573 94.349, 221.421 96.560 C 263.109 103.735, 298.422 119.727, 332.413 146.825 C 341.053 153.713, 357.465 170.126, 365.213 179.627 C 371.384 187.193, 385.673 208.427, 390.450 217.127 L 393.399 222.500 394.864 214.500 C 395.884 208.923, 396.338 199.080, 396.360 182 C 396.387 160.943, 396.079 155.778, 394.171 145.244 C 391.253 129.139, 386.204 111.916, 380.703 99.306 C 376.198 88.980, 367.920 74.008, 365.693 72.160 C 365.025 71.605, 359.668 68.685, 353.789 65.671 C 327.188 52.032, 298.081 43.769, 272 42.451 C 266.225 42.159, 260.150 41.825, 258.500 41.710 C 256.850 41.594, 252.350 41.606, 248.500 41.737 M 406 104.131 C 406 104.437, 406.917 107.345, 408.038 110.593 C 418.268 140.247, 421.346 186.780, 415.405 222 C 402.867 296.340, 354.787 360.990, 287.500 393.987 C 258.129 408.389, 232.229 415.464, 199.500 418.025 C 172.056 420.172, 135.335 415.815, 111.075 407.534 C 106.991 406.141, 103.406 405, 103.109 405 C 101.974 405, 113.830 416.431, 121 422.250 C 151.217 446.773, 188.728 463.108, 227.172 468.484 C 242.129 470.576, 269.949 470.565, 284.990 468.462 C 331.760 461.921, 373.867 440.911, 407.389 407.389 C 440.911 373.867, 461.921 331.760, 468.462 284.990 C 470.565 269.949, 470.576 242.129, 468.484 227.172 C 463.121 188.823, 447.482 152.702, 422.949 122 C 416.607 114.064, 406 102.881, 406 104.131 M 158 116.120 C 150.141 117.022, 133.127 120.242, 126.787 122.028 C 122.585 123.211, 122.367 123.717, 119.035 140 C 115.945 155.105, 114.848 166.371, 114.845 183.026 C 114.835 256.805, 152.651 324.834, 215.843 364.716 C 226.047 371.156, 238.666 377.597, 248.698 381.485 L 255.895 384.275 261.698 381.983 C 315.229 360.839, 359.726 316.626, 381.424 263.021 L 384.046 256.541 381.866 251.021 C 377.822 240.777, 366.975 220.223, 360.516 210.562 C 329.100 163.574, 280.081 130.469, 225 119.041 C 207.097 115.326, 176.531 113.994, 158 116.120 M 86.382 137.803 C 80.267 140.957, 74.517 144.156, 73.606 144.912 C 68.915 148.805, 56.334 176.389, 50.521 195.524 C 38.930 233.679, 38.930 278.321, 50.521 316.476 C 57.062 338.009, 69.326 363.973, 74.775 367.826 C 78.800 370.673, 96.983 379.630, 104.746 382.590 C 132.431 393.147, 158.886 397.643, 187.907 396.720 C 203.721 396.218, 221 394.273, 221 392.996 C 221 392.667, 218.910 391.383, 216.355 390.142 C 195.219 379.873, 162.976 353.002, 145.393 331 C 109.380 285.939, 91.111 231.180, 93.349 175 C 93.913 160.841, 95.647 145.979, 97.907 135.918 C 98.391 133.763, 98.498 132.016, 98.144 132.035 C 97.790 132.055, 92.497 134.650, 86.382 137.803" stroke="none" fill="#fcfcfc" fill-rule="evenodd"/></svg>