<?xml version="1.0" standalone="no"?>
<!DOCTYPE svg PUBLIC "-//W3C//DTD SVG 20010904//EN"
 "http://www.w3.org/TR/2001/REC-SVG-20010904/DTD/svg10.dtd">
<svg version="1.0" xmlns="http://www.w3.org/2000/svg"
 width="700.000000pt" height="700.000000pt" viewBox="0 0 700.000000 700.000000"
 preserveAspectRatio="xMidYMid meet">
<metadata>
Created by potrace 1.14, written by Peter Selinger 2001-2017
</metadata>
<g transform="translate(0.000000,700.000000) scale(0.100000,-0.100000)"
fill="#000000" stroke="none">
<path d="M3189 6716 c-2 -2 -31 -7 -64 -11 -99 -11 -213 -31 -395 -70 -112
-24 -397 -123 -539 -187 -313 -141 -557 -299 -845 -548 -247 -215 -526 -570
-690 -882 -100 -188 -221 -486 -255 -627 -5 -20 -18 -70 -29 -111 -74 -278
-90 -437 -86 -835 2 -274 4 -303 25 -435 6 -36 13 -78 15 -95 12 -72 86 -350
122 -455 71 -204 174 -431 263 -578 21 -35 39 -66 39 -68 0 -9 156 -233 208
-299 321 -404 705 -712 1157 -925 163 -77 151 -72 270 -116 209 -76 489 -148
665 -170 30 -3 64 -8 75 -11 35 -8 607 -10 690 -2 382 36 743 139 1100 314
713 348 1255 925 1565 1664 29 68 53 129 54 135 2 6 21 69 44 140 23 71 44
138 46 150 2 12 13 62 25 111 56 243 65 343 66 690 0 232 -8 401 -20 460 -2
11 -7 38 -11 60 -12 83 -16 103 -45 225 -74 310 -201 622 -379 929 -23 40
-131 203 -154 233 -12 14 -32 41 -46 59 -201 267 -496 542 -785 731 -387 252
-755 397 -1254 493 -13 2 -46 7 -75 10 -28 3 -69 8 -91 11 -50 6 -660 16 -666
10z m-454 -1300 c50 -4 104 -8 120 -10 17 -3 53 -7 80 -11 44 -6 70 -10 174
-30 106 -20 402 -113 500 -157 163 -73 300 -144 425 -221 324 -198 644 -503
868 -827 96 -138 267 -457 327 -610 l22 -56 -36 -89 c-41 -102 -146 -314 -175
-356 -11 -15 -20 -30 -20 -34 0 -22 -220 -328 -309 -430 -44 -49 -242 -247
-296 -295 -97 -87 -316 -248 -400 -294 -16 -9 -57 -32 -90 -51 -80 -47 -241
-124 -342 -165 l-81 -33 -79 28 c-124 45 -387 183 -528 277 -141 94 -147 99
-274 204 -560 467 -932 1141 -1027 1864 -2 19 -7 51 -10 70 -3 19 -7 141 -9
270 -4 276 4 371 51 613 33 174 52 233 78 246 36 18 199 54 350 77 21 3 48 8
60 10 11 3 64 7 116 11 52 3 96 6 97 7 5 4 323 -3 408 -8z"/>
</g>
</svg>
